<?xml version="1.0" encoding="UTF-8" standalone="no"?>
<svg
   width="795.47998"
   height="140.49953"
   viewBox="0 0 795.47998 140.49953"
   version="1.1"
   id="svg17"
   sodipodi:docname="10in-36-48-element.svg"
   inkscape:version="1.4.2 (f4327f4, 2025-05-13)"
   xmlns:inkscape="http://www.inkscape.org/namespaces/inkscape"
   xmlns:sodipodi="http://sodipodi.sourceforge.net/DTD/sodipodi-0.dtd"
   xmlns="http://www.w3.org/2000/svg"
   xmlns:svg="http://www.w3.org/2000/svg">
  <defs
     id="defs17" />
  <sodipodi:namedview
     id="namedview17"
     pagecolor="#ffffff"
     bordercolor="#000000"
     borderopacity="0.25"
     inkscape:showpageshadow="2"
     inkscape:pageopacity="0.0"
     inkscape:pagecheckerboard="0"
     inkscape:deskcolor="#d1d1d1"
     inkscape:zoom="1.9583333"
     inkscape:cx="398.04256"
     inkscape:cy="70.212767"
     inkscape:window-width="2560"
     inkscape:window-height="1377"
     inkscape:window-x="1912"
     inkscape:window-y="-8"
     inkscape:window-maximized="1"
     inkscape:current-layer="svg17" />
  <title
     id="title1">Produce by Acme CAD Converter</title>
  <desc
     id="desc1">Produce by Acme CAD Converter</desc>
  <path
     d="m 773.98,133.77976 c -76.84,0 -153.68,0 -230.52,0"
     fill="none"
     stroke="#000000"
     stroke-width="0.5"
     id="path1"
     style="stroke-width:3.77953;stroke-dasharray:none" />
  <path
     d="m 536.5,133.77976 c -178.83333,0 -357.66667,0 -536.5,0"
     fill="none"
     stroke="#000000"
     stroke-width="0.5"
     id="path2"
     style="stroke-width:3.77953;stroke-dasharray:none" />
  <path
     d="m 795.48,4.7797638 c -84.00667,0 -168.01333,0 -252.02,0"
     fill="none"
     stroke="#000000"
     stroke-width="0.5"
     id="path3"
     style="stroke-width:3.77953;stroke-dasharray:none" />
  <path
     d="m 536.5,4.7797638 c -178.83333,0 -357.66667,0 -536.5,0"
     fill="none"
     stroke="#000000"
     stroke-width="0.5"
     id="path4"
     style="stroke-width:3.77953;stroke-dasharray:none" />
  <path
     d="m 795.48,31.659764 c -84.00667,0 -168.01333,0 -252.02,0"
     fill="none"
     stroke="#000000"
     stroke-width="0.5"
     id="path5"
     style="stroke-width:3.77953;stroke-dasharray:none" />
  <path
     d="m 536.5,31.659764 c -178.83333,0 -357.66667,0 -536.5,0"
     fill="none"
     stroke="#000000"
     stroke-width="0.5"
     id="path6"
     style="stroke-width:3.77953;stroke-dasharray:none" />
  <path
     d="m 779.35,37.029764 c -78.63,0 -157.26,0 -235.89,0"
     fill="none"
     stroke="#000000"
     stroke-width="0.5"
     id="path7"
     style="stroke-width:3.77953;stroke-dasharray:none" />
  <path
     d="m 536.5,37.029764 c -178.83333,0 -357.66667,0 -536.5,0"
     fill="none"
     stroke="#000000"
     stroke-width="0.5"
     id="path8"
     style="stroke-width:3.77953;stroke-dasharray:none" />
  <path
     d="m 773.95,63.909764 c -76.83,0 -153.66,0 -230.49,0"
     fill="none"
     stroke="#000000"
     stroke-width="0.5"
     id="path9"
     style="stroke-width:3.77953;stroke-dasharray:none" />
  <path
     d="m 536.5,63.909764 c -178.83333,0 -357.66667,0 -536.5,0"
     fill="none"
     stroke="#000000"
     stroke-width="0.5"
     id="path10"
     style="stroke-width:3.77953;stroke-dasharray:none" />
  <path
     d="m 773.98,74.659764 c -76.84,0 -153.68,0 -230.52,0"
     fill="none"
     stroke="#000000"
     stroke-width="0.5"
     id="path11"
     style="stroke-width:3.77953;stroke-dasharray:none" />
  <path
     d="m 536.5,74.659764 c -178.83333,0 -357.66667,0 -536.5,0"
     fill="none"
     stroke="#000000"
     stroke-width="0.5"
     id="path12"
     style="stroke-width:3.77953;stroke-dasharray:none" />
  <path
     d="m 773.98,101.52976 c -76.84,0 -153.68,0 -230.52,0"
     fill="none"
     stroke="#000000"
     stroke-width="0.5"
     id="path13"
     style="stroke-width:3.77953;stroke-dasharray:none" />
  <path
     d="m 536.5,101.52976 c -178.83333,0 -357.66667,0 -536.5,0"
     fill="none"
     stroke="#000000"
     stroke-width="0.5"
     id="path14"
     style="stroke-width:3.77953;stroke-dasharray:none" />
  <path
     d="m 773.98,106.89976 c -76.84,0 -153.68,0 -230.52,0"
     fill="none"
     stroke="#000000"
     stroke-width="0.5"
     id="path15"
     style="stroke-width:3.77953;stroke-dasharray:none" />
  <path
     d="m 536.5,106.89976 c -178.83333,0 -357.66667,0 -536.5,0"
     fill="none"
     stroke="#000000"
     stroke-width="0.5"
     id="path16"
     style="stroke-width:3.77953;stroke-dasharray:none" />
  <path
     d="m 536.5,1.8897638 h 4.03614 2.92386 m 0,0 c 0,45.5733302 0,91.1466702 0,136.7199962 m 0,0 H 539.42386 536.5 m 0,0 c 0,-45.573326 0,-91.146666 0,-136.7199962"
     fill="none"
     stroke="#000000"
     stroke-width="0.5"
     id="path17"
     style="stroke-width:3.77953;stroke-dasharray:none" />
</svg>
