<?xml version="1.0" encoding="UTF-8" standalone="no"?>
<svg
   width="157.27634"
   height="611.70874"
   viewBox="0 0 157.27634 611.70874"
   version="1.1"
   id="svg12"
   sodipodi:docname="10in-36-48-elementH.svg"
   inkscape:version="1.4.2 (f4327f4, 2025-05-13)"
   xmlns:inkscape="http://www.inkscape.org/namespaces/inkscape"
   xmlns:sodipodi="http://sodipodi.sourceforge.net/DTD/sodipodi-0.dtd"
   xmlns="http://www.w3.org/2000/svg"
   xmlns:svg="http://www.w3.org/2000/svg">
  <defs
     id="defs12" />
  <sodipodi:namedview
     id="namedview12"
     pagecolor="#ffffff"
     bordercolor="#000000"
     borderopacity="0.25"
     inkscape:showpageshadow="2"
     inkscape:pageopacity="0.0"
     inkscape:pagecheckerboard="0"
     inkscape:deskcolor="#d1d1d1"
     inkscape:zoom="1.3847508"
     inkscape:cx="62.466113"
     inkscape:cy="378.76851"
     inkscape:window-width="2560"
     inkscape:window-height="1377"
     inkscape:window-x="1912"
     inkscape:window-y="-8"
     inkscape:window-maximized="1"
     inkscape:current-layer="svg12" />
  <title
     id="title1">Produce by Acme CAD Converter</title>
  <desc
     id="desc1">Produce by Acme CAD Converter</desc>
  <path
     d="m 149.71729,479.86179 v -24.86"
     fill="none"
     stroke="#000000"
     stroke-width="0.5"
     id="path1"
     style="fill:#000000;fill-opacity:0;stroke-width:15.1181;stroke-dasharray:none" />
  <path
     d="m 149.71729,82.121789 v -24.86"
     fill="none"
     stroke="#000000"
     stroke-width="0.5"
     id="path2"
     style="fill:#000000;fill-opacity:0;stroke-width:15.1181;stroke-dasharray:none" />
  <path
     d="m 100.00729,131.84179 4.33,-0.19 m 0,0 4.3,-0.56 m 0,0 4.23,-0.94 m 0,0 4.14,-1.31 m 0,0 4.01,-1.66 m 0,0 3.85,-2 m 0,0 3.65,-2.33 m 0,0 3.44,-2.64 m 0,0 3.2,-2.93 m 0,0 2.93,-3.2 m 0,0 2.64,-3.44 m 0,0 2.33,-3.66 m 0,0 2.01,-3.85 m 0,0 1.66,-4.000001 m 0,0 1.3,-4.14 m 0,0 0.94,-4.23 m 0,0 0.56,-4.3 m 0,0 0.19,-4.34"
     fill="none"
     stroke="#000000"
     stroke-width="0.5"
     id="path3"
     style="fill:#000000;fill-opacity:0;stroke-width:15.1181;stroke-dasharray:none" />
  <path
     d="m 149.71729,455.00179 h -0.61"
     fill="none"
     stroke="#000000"
     stroke-width="0.5"
     id="path4"
     style="fill:#000000;fill-opacity:0;stroke-width:15.1181;stroke-dasharray:none" />
  <path
     d="m 149.71729,479.86179 h -0.61"
     fill="none"
     stroke="#000000"
     stroke-width="0.5"
     id="path5"
     style="fill:#000000;fill-opacity:0;stroke-width:15.1181;stroke-dasharray:none" />
  <path
     d="m 149.71729,57.261789 -0.19,-4.33 m 0,0 -0.56,-4.3 m 0,0 -0.94,-4.23 m 0,0 -1.3,-4.14 m 0,0 -1.66,-4.01 m 0,0 -2.01,-3.84 m 0,0 -2.33,-3.66 m 0,0 -2.64,-3.44 m 0,0 -2.93,-3.2 m 0,0 -3.2,-2.93 m 0,0 -3.44,-2.64 m 0,0 -3.65,-2.33 m 0,0 -3.85,-2 m 0,0 -4.01,-1.66 m 0,0 -4.14,-1.3100005 m 0,0 -4.23,-0.94 m 0,0 -4.3,-0.56 m 0,0 -4.33,-0.19"
     fill="none"
     stroke="#000000"
     stroke-width="0.5"
     id="path7"
     style="fill:#000000;fill-opacity:0;stroke-width:15.1181;stroke-dasharray:none" />
  <path
     d="m 0.56728551,604.15179 c 2.55999999,-0.06 5.11999999,-0.12 7.67999999,-0.18 m 0,0 c 2.5533305,-0.18 5.1066705,-0.36 7.6600005,-0.54 m 0,0 c 2.54,-0.30333 5.08,-0.60667 7.62,-0.91 m 0,0 c 2.51667,-0.42 5.03333,-0.84 7.55,-1.26 m 0,0 c 2.49333,-0.54 4.98667,-1.08 7.48,-1.62 m 0,0 c 2.45667,-0.65333 4.91333,-1.30667 7.37,-1.96 m 0,0 c 2.42,-0.77333 4.84,-1.54667 7.26,-2.32 m 0,0 c 2.37,-0.88333 4.74,-1.76667 7.11,-2.65 m 0,0 c 2.32,-0.99333 4.64,-1.98667 6.96,-2.98 m 0,0 c 2.26,-1.10333 4.52,-2.20667 6.78,-3.31 m 0,0 c 2.19333,-1.21 4.38667,-2.42 6.58,-3.63 m 0,0 c 2.12333,-1.31 4.24667,-2.62 6.37,-3.93 m 0,0 c 2.05,-1.40667 4.1,-2.81333 6.15,-4.22 m 0,0 c 1.96667,-1.50333 3.93333,-3.00667 5.9,-4.51 m 0,0 c 1.876674,-1.59667 3.753334,-3.19333 5.630004,-4.79 m 0,0 c 1.78667,-1.68 3.57333,-3.36 5.36,-5.04 m 0,0 c 1.69,-1.76333 3.38,-3.52667 5.07,-5.29 m 0,0 c 1.59,-1.84 3.18,-3.68 4.77,-5.52 m 0,0 c 1.48333,-1.91333 2.96667,-3.82667 4.45,-5.74 m 0,0 c 1.37333,-1.98 2.74667,-3.96 4.12,-5.94 m 0,0 c 1.26333,-2.04 2.52667,-4.08 3.79,-6.12 m 0,0 c 1.14333,-2.1 2.28667,-4.2 3.43,-6.3 m 0,0 c 1.02333,-2.15 2.04667,-4.3 3.07,-6.45 m 0,0 c 0.90333,-2.19667 1.80667,-4.39333 2.71,-6.59 m 0,0 c 0.78,-2.23667 1.56,-4.47333 2.34,-6.71 m 0,0 c 0.65333,-2.27 1.30667,-4.54 1.96,-6.81 m 0,0 c 0.52333,-2.29667 1.04667,-4.59333 1.57,-6.89 m 0,0 c 0.39333,-2.31667 0.78667,-4.63333 1.18,-6.95 m 0,0 c 0.26333,-2.33667 0.52667,-4.67333 0.79,-7.01 m 0,0 c 0.13,-2.34333 0.26,-4.68667 0.39,-7.03 m 0,0 c 0,-2.34667 0,-4.69333 0,-7.04 m 0,0 c -0.13,-2.34333 -0.26,-4.68667 -0.39,-7.03 m 0,0 c -0.26333,-2.33333 -0.52667,-4.66667 -0.79,-7 m 0,0 c -0.39333,-2.32 -0.78667,-4.64 -1.18,-6.96 m 0,0 c -0.52333,-2.29667 -1.04667,-4.59333 -1.57,-6.89 m 0,0 c -0.65333,-2.27 -1.30667,-4.54 -1.96,-6.81 m 0,0 c -0.78,-2.23667 -1.56,-4.47333 -2.34,-6.71 m 0,0 c -0.90333,-2.19667 -1.80667,-4.39333 -2.71,-6.59 m 0,0 c -1.02333,-2.15 -2.04667,-4.3 -3.07,-6.45 m 0,0 c -1.14333,-2.1 -2.28667,-4.2 -3.43,-6.3 m 0,0 c -1.26333,-2.04 -2.52667,-4.08 -3.79,-6.12 m 0,0 c -1.37333,-1.98 -2.74667,-3.96 -4.12,-5.94 m 0,0 c -1.48333,-1.91333 -2.96667,-3.82667 -4.45,-5.74 m 0,0 c -1.59,-1.84 -3.18,-3.68 -4.77,-5.52 m 0,0 c -1.69,-1.76333 -3.38,-3.52667 -5.07,-5.29 m 0,0 c -1.78667,-1.68 -3.57333,-3.36 -5.36,-5.04 m 0,0 c -1.87667,-1.59667 -3.75333,-3.19333 -5.630004,-4.79 m 0,0 c -1.96667,-1.50333 -3.93333,-3.00667 -5.9,-4.51 m 0,0 c -2.05,-1.40667 -4.1,-2.81333 -6.15,-4.22 m 0,0 c -2.12333,-1.31 -4.24667,-2.62 -6.37,-3.93 m 0,0 c -2.19333,-1.21 -4.38667,-2.42 -6.58,-3.63 m 0,0 c -2.26,-1.10333 -4.52,-2.20667 -6.78,-3.31 m 0,0 c -2.32,-0.99333 -4.64,-1.98667 -6.96,-2.98 m 0,0 c -2.37,-0.88333 -4.74,-1.76667 -7.11,-2.65 m 0,0 c -2.42,-0.77333 -4.84,-1.54667 -7.26,-2.32 m 0,0 c -2.45667,-0.65333 -4.91333,-1.30667 -7.37,-1.96 m 0,0 c -2.49333,-0.54 -4.98667,-1.08 -7.48,-1.62 m 0,0 c -2.51667,-0.42 -5.03333,-0.84 -7.55,-1.26 m 0,0 c -2.54,-0.30333 -5.08,-0.60667 -7.62,-0.91 m 0,0 c -2.55333,-0.18 -5.10667,-0.36 -7.6600005,-0.54 m 0,0 c -2.56,-0.06 -5.12,-0.12 -7.67999999,-0.18"
     fill="none"
     stroke="#000000"
     stroke-width="0.5"
     id="path8"
     style="fill:#000000;fill-opacity:0;stroke-width:15.1181;stroke-dasharray:none" />
  <path
     d="m 0.56728551,479.86179 c 0.0733,0 0.14667,0 0.22,0 m 0,0 c 0.07,0 0.14,0 0.21,0 m 0,0 0.21999999,-0.01 m 0,0 c 0.0733,0 0.14667,0 0.22,0 m 0,0 0.21,-0.01 m 0,0 c 0.0733,0 0.14667,0 0.22,0 m 0,0 0.21,-0.01 m 0,0 0.22,-0.01 m 0,0 0.21,-0.01 m 0,0 0.22,-0.02 m 0,0 0.21,-0.01 m 0,0 0.22,-0.01 m 0,0 0.21,-0.02 m 0,0 0.21,-0.02 m 0,0 0.22,-0.02 m 0,0 0.21,-0.02 m 0,0 0.21,-0.02 m 0,0 0.21,-0.02 m 0,0 0.22,-0.02 m 0,0 c 0.07,-0.01 0.14,-0.02 0.21,-0.03 m 0,0 0.21,-0.02 m 0,0 c 0.07,-0.01 0.14,-0.02 0.21,-0.03 m 0,0 c 0.07,-0.01 0.14,-0.02 0.21,-0.03 m 0,0 0.21,-0.02 m 0,0 c 0.07,-0.01 0.14,-0.02 0.21,-0.03 m 0,0 0.21,-0.04 m 0,0 c 0.07,-0.01 0.14,-0.02 0.21,-0.03 m 0,0 0.2,-0.03 m 0,0 0.21,-0.04 m 0,0 c 0.07,-0.01 0.14,-0.02 0.21,-0.03 m 0,0 0.2,-0.04 m 0,0 c 0.07,-0.01 0.14,-0.02 0.21,-0.03 m 0,0 0.2,-0.04 m 0,0 0.21,-0.04 m 0,0 0.2,-0.04 m 0,0 0.2,-0.04 m 0,0 0.21,-0.05 m 0,0 0.2,-0.04 m 0,0 0.2,-0.05 m 0,0 0.2,-0.04 m 0,0 0.2,-0.05 m 0,0 0.2,-0.04 m 0,0 0.2,-0.05 m 0,0 0.19,-0.05 m 0,0 0.2,-0.05 m 0,0 0.1900005,-0.05 m 0,0 0.2,-0.06 m 0,0 0.19,-0.05 m 0,0 0.19,-0.05 m 0,0 0.2,-0.06 m 0,0 0.19,-0.05 m 0,0 0.19,-0.06 m 0,0 0.19,-0.06 m 0,0 0.19,-0.05 m 0,0 c 0.06,-0.02 0.12,-0.04 0.18,-0.06 m 0,0 0.19,-0.06 m 0,0 c 0.06,-0.02 0.12,-0.04 0.18,-0.06 m 0,0 0.19,-0.06 m 0,0 c 0.06,-0.02 0.12,-0.04 0.18,-0.06 m 0,0 0.18,-0.07 m 0,0 c 0.06,-0.02 0.12,-0.04 0.18,-0.06 m 0,0 c 0.06,-0.02 0.12,-0.04 0.18,-0.06 m 0,0 0.18,-0.07 m 0,0 0.18,-0.07 m 0,0 c 0.06,-0.02 0.12,-0.04 0.18,-0.06 m 0,0 0.17,-0.07 m 0,0 0.18,-0.07 m 0,0 0.17,-0.07 m 0,0 0.17,-0.06 m 0,0 0.17,-0.07 m 0,0 0.17,-0.07 m 0,0 0.17,-0.08 m 0,0 0.16,-0.07 m 0,0 0.17,-0.07 m 0,0 0.16,-0.07 m 0,0 0.17,-0.08 m 0,0 0.16,-0.07 m 0,0 0.16,-0.08 m 0,0 0.16,-0.07 m 0,0 0.15,-0.08 m 0,0 0.16,-0.07 m 0,0 0.15,-0.08 m 0,0 0.16,-0.08 m 0,0 0.15,-0.08 m 0,0 0.15,-0.07 m 0,0 0.15,-0.08 m 0,0 0.14,-0.08 m 0,0 0.15,-0.08 m 0,0 0.14,-0.08 m 0,0 0.14,-0.08 m 0,0 0.14,-0.08 m 0,0 0.14,-0.08 m 0,0 0.14,-0.08 m 0,0 0.13,-0.08 m 0,0 0.14,-0.08 m 0,0 0.13,-0.08 m 0,0 0.13,-0.08 m 0,0 0.13,-0.08 m 0,0 0.13,-0.08 m 0,0 0.12,-0.08 m 0,0 0.13,-0.08 m 0,0 0.12,-0.08 m 0,0 0.12,-0.08 m 0,0 c 0.04,-0.03 0.08,-0.06 0.12,-0.09 m 0,0 0.12,-0.08 m 0,0 0.12,-0.08 m 0,0 0.0579,-0.0421 3e-5,-2e-5 0.0521,-0.0379 m 0,0 0.12,-0.08 m 0,0 0.0579,-0.0421 3e-5,-2e-5 0.0521,-0.0379 m 0,0 0.0579,-0.0421 3e-5,-2e-5 0.0521,-0.0379 m 0,0 0.0579,-0.0421 3e-5,-2e-5 0.0521,-0.0379 m 0,0 0.0579,-0.0421 3e-5,-2e-5 0.0521,-0.0379 m 0,0 0.0579,-0.0421 3e-5,-2e-5 0.0521,-0.0379 m 0,0 0.0532,-0.0479 2e-5,-2e-5 0.0468,-0.0421 m 0,0 0.0579,-0.0421 3e-5,-2e-5 0.0521,-0.0379 m 0,0 0.0559,-0.0447 10e-6,-10e-6 0.0441,-0.0353 m 0,0 0.0559,-0.0447 10e-6,-1e-5 0.0441,-0.0353 m 0,0 0.0559,-0.0447 10e-6,-10e-6 0.0441,-0.0353 m 0,0 0.0559,-0.0447 1e-5,-10e-6 0.0441,-0.0353 m 0,0 0.0559,-0.0447 10e-6,-1e-5 0.0441,-0.0353 m 0,0 0.0535,-0.0475 0.0365,-0.0325 m 0,0 0.0559,-0.0447 10e-6,-1e-5 0.0441,-0.0353 m 0,0 0.0535,-0.0475 0.0365,-0.0325 m 0,0 0.0535,-0.0475 0.0365,-0.0325 m 0,0 0.0535,-0.0475 0.0365,-0.0325 m 0,0 0.0565,-0.0439 0.0335,-0.0261 m 0,0 0.0535,-0.0475 0.0365,-0.0325 m 0,0 0.0506,-0.0506 v 0 l 0.02911,-0.0292 m 0,0 0.0535,-0.0475 0.0365,-0.0325 m 0,0 0.0506,-0.0506 v 0 l 0.0294,-0.0294 m 0,0 0.0535,-0.0475 0.0365,-0.0325 m 0,0 0.0539,-0.0471 2e-5,-2e-5 0.02608,-0.0229 m 0,0 0.0506,-0.0506 v 0 l 0.0294,-0.0294 m 0,0 0.0506,-0.0506 v 0 l 0.0294,-0.0294 m 0,0 0.0506,-0.0506 v 0 l 0.0194,-0.0194 m 0,0 0.0506,-0.0506 v 0 l 0.0294,-0.0294 m 0,0 0.0506,-0.0506 v 0 l 0.0294,-0.0294 m 0,0 0.0506,-0.0506 v 0 l 0.0194,-0.0194 m 0,0 0.0471,-0.0539 2e-5,-2e-5 0.0229,-0.0261 m 0,0 0.0506,-0.0506 v 0 l 0.01938,-0.0194 m 0,0 0.0506,-0.0506 v 0 l 0.0194,-0.0194 m 0,0 0.0471,-0.0539 2e-5,-2e-5 0.0229,-0.0262 m 0,0 0.0506,-0.0506 v 0 l 0.0194,-0.0194 m 0,0 0.0506,-0.0506 v 0 l 0.0194,-0.0194 m 0,0 0.0429,-0.0573 10e-6,-2e-5 0.0171,-0.0227 m 0,0 0.0506,-0.0506 v 0 l 0.0194,-0.0194 m 0,0 0.0466,-0.0543 0.0134,-0.0157 m 0,0 0.0466,-0.0543 0.0134,-0.0157 m 0,0 0.0466,-0.0543 0.0134,-0.0157 m 0,0 0.0466,-0.0543 0.0134,-0.0157 m 0,0 0.0466,-0.0543 0.01337,-0.0156 m 0,0 0.0466,-0.0543 0.0134,-0.0157 m 0,0 0.0416,-0.0582 0.008,-0.0118 m 0,0 0.0466,-0.0543 0.0134,-0.0157 m 0,0 0.0416,-0.0582 0.008,-0.0118 m 0,0 0.0506,-0.0506 v 0 l 0.009,-0.009 m 0,0 0.0416,-0.0582 0.008,-0.0118 m 0,0 0.0416,-0.0582 0.008,-0.0118 m 0,0 0.0458,-0.055 10e-6,-10e-6 0.004,-0.005 m 0,0 0.0416,-0.0582 0.008,-0.0118 m 0,0 0.0397,-0.0595 3.1e-4,-4.6e-4 m 0,0 0.0458,-0.055 10e-6,-1e-5 0.004,-0.005 m 0,0 0.0355,-0.0621 0.005,-0.008 m 0,0 0.0458,-0.055 10e-6,-1e-5 0.004,-0.005 m 0,0 0.0397,-0.0595 3.1e-4,-4.6e-4 m 0,0 0.0397,-0.0595 3.1e-4,-4.6e-4 m 0,0 0.0458,-0.055 10e-6,-1e-5 0.004,-0.005 m 0,0 0.0397,-0.0595 3.1e-4,-4.6e-4 m 0,0 0.03,-0.06 m 0,0 0.0397,-0.0595 3.1e-4,-4.6e-4 m 0,0 0.04,-0.05 m 0,0 0.0397,-0.0595 3.1e-4,-4.6e-4 m 0,0 0.03,-0.05 m 0,0 0.0397,-0.0595 3.1e-4,-4.6e-4 m 0,0 0.03,-0.05 m 0,0 0.03,-0.06 m 0,0 0.03,-0.05 m 0,0 0.03,-0.05 m 0,0 0.03,-0.05 m 0,0 0.03,-0.05 m 0,0 0.03,-0.05 m 0,0 0.02,-0.05 m 0,0 0.03,-0.04 m 0,0 0.03,-0.05 m 0,0 0.02,-0.05 m 0,0 0.02,-0.04 m 0,0 0.02,-0.04 m 0,0 0.03,-0.05 m 0,0 0.02,-0.04 m 0,0 0.02,-0.04 m 0,0 0.02,-0.04 m 0,0 0.01,-0.04 m 0,0 0.02,-0.04 m 0,0 0.02,-0.03 m 0,0 0.01,-0.04 m 0,0 0.02,-0.03 m 0,0 0.01,-0.04 m 0,0 0.02,-0.03 m 0,0 0.01,-0.03 m 0,0 0.01,-0.03 m 0,0 0.02,-0.03 m 0,0 0.01,-0.03 m 0,0 0.01,-0.03 m 0,0 0.01,-0.03 m 0,0 0.02,-0.03 m 0,0 0.01,-0.02 m 0,0 0.01,-0.03 m 0,0 0.01,-0.02 m 0,0 0.01,-0.03 m 0,0 0.01,-0.02 m 0,0 0.01,-0.02 m 0,0 0.01,-0.03 m 0,0 0.02,-0.04 m 0,0 0.02,-0.04 m 0,0 0.02,-0.04 m 0,0 0.02,-0.03 m 0,0 0.01,-0.04 m 0,0 0.02,-0.03 m 0,0 0.01,-0.03 m 0,0 0.01,-0.02 m 0,0 0.01,-0.03 m 0,0 0.01,-0.02 m 0,0 0.01,-0.03 m 0,0 0.01,-0.02 m 0,0 0.01,-0.02 m 0,0 v -0.02 m 0,0 0.01,-0.02 m 0,0 v -0.01 m 0,0 0.01,-0.02 m 0,0 v -0.02 m 0,0 v -0.01 m 0,0 v -0.02 m 0,0 v -0.01 m 0,0 v -0.02 m 0,0 v -0.01 m 0,0 v -0.02 m 0,0 v -0.02 m 0,0 -0.01,-0.01 m 0,0 v -0.02 m 0,0 -0.01,-0.02 m 0,0 -0.01,-0.01 m 0,0 v -0.02 m 0,0 -0.01,-0.02 m 0,0 -0.01,-0.02 m 0,0 -0.01,-0.03 m 0,0 -0.01,-0.02 m 0,0 -0.01,-0.02 m 0,0 -0.02,-0.03 m 0,0 -0.01,-0.03 m 0,0 -0.01,-0.03 m 0,0 -0.02,-0.03 m 0,0 -0.01,-0.04 m 0,0 -0.02,-0.03 m 0,0 -0.01,-0.04 m 0,0 -0.02,-0.04 m 0,0 -0.02,-0.04 m 0,0 -0.02,-0.05 m 0,0 -0.01,-0.02 m 0,0 -0.01,-0.03 m 0,0 v -0.03 m 0,0 -0.01,-0.02 m 0,0 -0.01,-0.03 m 0,0 -0.02,-0.03 m 0,0 -0.01,-0.02 m 0,0 -0.01,-0.03 m 0,0 -0.01,-0.04 m 0,0 -0.01,-0.03 m 0,0 -0.01,-0.03 m 0,0 -0.02,-0.03 m 0,0 -0.01,-0.04 m 0,0 -0.02,-0.03 m 0,0 -0.01,-0.04 m 0,0 -0.02,-0.04 m 0,0 -0.02,-0.04 m 0,0 -0.02,-0.04 m 0,0 -0.01,-0.04 m 0,0 -0.02,-0.04 m 0,0 -0.02,-0.04 m 0,0 -0.03,-0.04 m 0,0 -0.02,-0.05 m 0,0 -0.02,-0.04 m 0,0 -0.02,-0.05 m 0,0 -0.03,-0.04 m 0,0 -0.02,-0.05 m 0,0 -0.03,-0.05 m 0,0 -0.03,-0.05 m 0,0 -0.02,-0.04 m 0,0 -0.03,-0.06 m 0,0 -0.03,-0.05 m 0,0 -0.03,-0.05 m 0,0 -0.03,-0.05 m 0,0 -0.03,-0.05 m 0,0 -0.0397,-0.0595 -3.1e-4,-4.6e-4 m 0,0 -0.03,-0.05 m 0,0 -0.0397,-0.0595 -3.1e-4,-4.6e-4 m 0,0 -0.03,-0.06 m 0,0 -0.04,-0.05 m 0,0 -0.0397,-0.0595 -3.1e-4,-4.6e-4 m 0,0 -0.0397,-0.0595 -3.1e-4,-4.6e-4 m 0,0 -0.03,-0.06 m 0,0 -0.0458,-0.055 -10e-6,-10e-6 -0.004,-0.005 m 0,0 -0.0397,-0.0595 0.002,-0.001 m 0,0 -0.0397,-0.0595 -3.1e-4,-4.6e-4 m 0,0 -0.0397,-0.0595 -3.1e-4,-4.6e-4 m 0,0 -0.0458,-0.055 -10e-6,-10e-6 -0.004,-0.005 m 0,0 -0.0397,-0.0595 -3.1e-4,-4.6e-4 m 0,0 -0.0416,-0.0582 -0.008,-0.0118 m 0,0 -0.0458,-0.055 -10e-6,-10e-6 -0.004,-0.005 m 0,0 -0.0416,-0.0582 -0.008,-0.0118 m 0,0 -0.0458,-0.055 -10e-6,-1e-5 -0.004,-0.005 m 0,0 -0.0416,-0.0582 -0.008,-0.0118 m 0,0 -0.0458,-0.055 -10e-6,-10e-6 -0.004,-0.005 m 0,0 -0.0416,-0.0582 -0.008,-0.0118 m 0,0 -0.0466,-0.0543 -0.0134,-0.0157 m 0,0 -0.0416,-0.0582 -0.008,-0.0118 m 0,0 -0.0506,-0.0506 v 0 l -0.009,-0.009 m 0,0 -0.0466,-0.0543 -0.0134,-0.0157 m 0,0 -0.0416,-0.0582 -0.008,-0.0118 m 0,0 -0.0466,-0.0543 -0.0134,-0.0157 m 0,0 -0.0466,-0.0543 -0.0134,-0.0157 m 0,0 -0.0506,-0.0506 v 0 l -0.023,-0.0199 m 0,0 -0.0429,-0.0573 -10e-6,-2e-5 -0.0171,-0.0227 m 0,0 -0.0466,-0.0543 -0.0134,-0.0157 m 0,0 -0.0506,-0.0506 v 0 l -0.0194,-0.0194 m 0,0 -0.0506,-0.0506 v 0 l -0.0194,-0.0194 m 0,0 -0.0466,-0.0543 -0.0134,-0.0157 m 0,0 -0.0471,-0.0539 -2e-5,-2e-5 -0.0229,-0.0261 m 0,0 -0.0506,-0.0506 v 0 l -0.0194,-0.0194 m 0,0 -0.0506,-0.0506 v 0 l -0.0294,-0.0294 m 0,0 -0.0506,-0.0506 v 0 l -0.01916,-0.0195 m 0,0 -0.0471,-0.0539 -2e-5,-2e-5 -0.0229,-0.0261 m 0,0 -0.0538,-0.0471 -0.0262,-0.0229 m 0,0 -0.0506,-0.0506 v 0 l -0.02938,-0.0294 m 0,0 -0.0506,-0.0506 v 0 l -0.0194,-0.0194 m 0,0 -0.0506,-0.0506 v 0 l -0.0294,-0.0294 m 0,0 -0.0539,-0.0471 -2e-5,-2e-5 -0.0262,-0.0229 m 0,0 -0.0535,-0.0475 -0.0365,-0.0325 m 0,0 -0.0506,-0.0506 v 0 l -0.0294,-0.0294 m 0,0 -0.0506,-0.0506 v 0 l -0.0294,-0.0294 m 0,0 -0.0565,-0.0439 -0.03338,-0.0261 m 0,0 -0.0535,-0.0475 -0.0365,-0.0325 m 0,0 -0.0535,-0.0475 -0.0365,-0.0325 m 0,0 -0.0535,-0.0475 -0.0365,-0.0325 m 0,0 -0.0535,-0.0475 -0.0365,-0.0325 m 0,0 -0.0535,-0.0475 -0.0365,-0.0325 m 0,0 -0.0565,-0.0439 -0.0335,-0.0261 m 0,0 -0.0559,-0.0447 -10e-6,-10e-6 -0.0441,-0.0353 m 0,0 -0.0559,-0.0447 -1e-5,-1e-5 -0.0441,-0.0353 m 0,0 -0.0535,-0.0475 -0.0365,-0.0325 m 0,0 -0.0559,-0.0447 -10e-6,-1e-5 -0.0441,-0.0353 m 0,0 -0.0579,-0.0421 -3e-5,-2e-5 -0.0521,-0.0379 m 0,0 -0.0559,-0.0447 -1e-5,-1e-5 -0.0441,-0.0353 m 0,0 -0.0559,-0.0447 -10e-6,-1e-5 -0.0441,-0.0353 m 0,0 -0.0579,-0.0421 -3e-5,-2e-5 -0.0521,-0.0379 m 0,0 -0.0559,-0.0447 -10e-6,-10e-6 -0.0441,-0.0353 m 0,0 -0.0579,-0.0421 -3e-5,-2e-5 -0.0521,-0.0379 m 0,0 -0.0554,-0.0453 h -10e-6 l -0.05444,-0.0446 m 0,0 -0.0579,-0.0421 -3e-5,-2e-5 -0.0521,-0.0379 m 0,0 -0.12,-0.08 m 0,0 -0.0579,-0.0421 -3e-5,-2e-5 -0.0521,-0.0379 m 0,0 -0.12,-0.08 m 0,0 -0.12,-0.08 m 0,0 -0.12,-0.08 m 0,0 -0.12,-0.08 m 0,0 -0.12,-0.08 m 0,0 c -0.04,-0.03 -0.08,-0.06 -0.12,-0.09 m 0,0 -0.13,-0.08 m 0,0 -0.13,-0.08 m 0,0 -0.12,-0.08 m 0,0 -0.13,-0.08 m 0,0 -0.14,-0.08 m 0,0 -0.13,-0.08 m 0,0 -0.13,-0.08 m 0,0 -0.14,-0.08 m 0,0 -0.14,-0.08 m 0,0 -0.14,-0.09 m 0,0 -0.14,-0.08 m 0,0 -0.15,-0.08 m 0,0 -0.14,-0.08 m 0,0 -0.15,-0.08 m 0,0 -0.14,-0.07 m 0,0 -0.15,-0.08 m 0,0 -0.15,-0.08 m 0,0 -0.16,-0.08 m 0,0 -0.15,-0.07 m 0,0 -0.16,-0.08 m 0,0 -0.15,-0.08 m 0,0 -0.16,-0.07 m 0,0 -0.16,-0.08 m 0,0 -0.16,-0.07 m 0,0 -0.16,-0.08 m 0,0 -0.16,-0.07 m 0,0 -0.17,-0.07 m 0,0 -0.16,-0.07 m 0,0 -0.17,-0.07 m 0,0 -0.17,-0.07 m 0,0 -0.17,-0.08 m 0,0 -0.17,-0.06 m 0,0 -0.17,-0.07 m 0,0 -0.18,-0.07 m 0,0 -0.17,-0.07 m 0,0 -0.18,-0.07 m 0,0 -0.17,-0.06 m 0,0 -0.18,-0.07 m 0,0 c -0.06,-0.02 -0.12,-0.04 -0.18,-0.06 m 0,0 -0.18,-0.07 m 0,0 c -0.06,-0.02 -0.12,-0.04 -0.18,-0.06 m 0,0 c -0.06,-0.02 -0.12,-0.04 -0.18,-0.06 m 0,0 c -0.06,-0.02 -0.12,-0.04 -0.18,-0.06 m 0,0 -0.19,-0.07 m 0,0 c -0.06,-0.02 -0.12,-0.04 -0.18,-0.06 m 0,0 -0.19,-0.06 m 0,0 -0.19,-0.05 m 0,0 -0.19,-0.06 m 0,0 c -0.06,-0.02 -0.12,-0.04 -0.18,-0.06 m 0,0 -0.19,-0.06 m 0,0 -0.2,-0.05 m 0,0 -0.19,-0.06 m 0,0 -0.19,-0.05 m 0,0 -0.19,-0.05 m 0,0 -0.2,-0.06 m 0,0 -0.1900005,-0.05 m 0,0 -0.2,-0.05 m 0,0 -0.2,-0.05 m 0,0 -0.19,-0.04 m 0,0 -0.2,-0.05 m 0,0 -0.2,-0.05 m 0,0 -0.2,-0.04 m 0,0 -0.2,-0.05 m 0,0 -0.2,-0.04 m 0,0 -0.2,-0.05 m 0,0 -0.21,-0.04 m 0,0 -0.2,-0.04 m 0,0 -0.2,-0.04 m 0,0 -0.21,-0.04 m 0,0 -0.2,-0.04 m 0,0 c -0.07,-0.01 -0.14,-0.02 -0.21,-0.03 m 0,0 -0.21,-0.04 m 0,0 -0.2,-0.03 m 0,0 -0.21,-0.04 m 0,0 c -0.07,-0.01 -0.14,-0.02 -0.21,-0.03 m 0,0 c -0.07,-0.01 -0.14,-0.02 -0.21,-0.03 m 0,0 c -0.07,-0.01 -0.14,-0.02 -0.21,-0.03 m 0,0 -0.2,-0.03 m 0,0 c -0.07,-0.01 -0.14,-0.02 -0.21,-0.03 m 0,0 -0.22,-0.02 m 0,0 c -0.07,-0.01 -0.14,-0.02 -0.21,-0.03 m 0,0 -0.21,-0.02 m 0,0 c -0.07,-0.01 -0.14,-0.02 -0.21,-0.03 m 0,0 -0.21,-0.02 m 0,0 -0.21,-0.02 m 0,0 -0.22,-0.02 m 0,0 -0.21,-0.02 m 0,0 -0.21,-0.02 m 0,0 -0.22,-0.01 m 0,0 -0.21,-0.02 m 0,0 -0.21,-0.01 m 0,0 -0.22,-0.01 m 0,0 -0.21,-0.02 m 0,0 -0.22,-0.01 m 0,0 c -0.07,0 -0.14,0 -0.21,0 m 0,0 -0.22,-0.01 m 0,0 -0.21,-0.01 m 0,0 c -0.0733,0 -0.14667,0 -0.22,0 m 0,0 -0.21999999,-0.01 m 0,0 c -0.07,0 -0.14,0 -0.21,0 m 0,0 c -0.0733,0 -0.14667,0 -0.22,0"
     fill="none"
     stroke="#000000"
     stroke-width="0.5"
     id="path9"
     style="fill:#000000;fill-opacity:0;stroke-width:15.1181;stroke-dasharray:none" />
  <path
     d="m 126.01729,393.47179 c 1.2,-2.09333 2.4,-4.18667 3.6,-6.28 m 0,0 c 1.10667,-2.16667 2.21333,-4.33333 3.32,-6.5 m 0,0 c 1.01667,-2.23 2.03333,-4.46 3.05,-6.69 m 0,0 c 0.92,-2.29 1.84,-4.58 2.76,-6.87 m 0,0 c 0.82,-2.34333 1.64,-4.68667 2.46,-7.03 m 0,0 c 0.72,-2.39 1.44,-4.78 2.16,-7.17 m 0,0 c 0.61667,-2.43333 1.23333,-4.86667 1.85,-7.3 m 0,0 c 0.51333,-2.46667 1.02667,-4.93333 1.54,-7.4 m 0,0 c 0.40667,-2.49333 0.81333,-4.98667 1.22,-7.48 m 0,0 c 0.3,-2.51667 0.6,-5.03333 0.9,-7.55 m 0,0 c 0.19333,-2.53333 0.38667,-5.06667 0.58,-7.6 m 0,0 c 0.0833,-2.53667 0.16667,-5.07333 0.25,-7.61 m 0,0 c -0.0233,-2.54333 -0.0467,-5.08667 -0.07,-7.63 m 0,0 c -0.13333,-2.53667 -0.26667,-5.07333 -0.4,-7.61 m 0,0 c -0.24,-2.52667 -0.48,-5.05333 -0.72,-7.58 m 0,0 c -0.34667,-2.50667 -0.69333,-5.01333 -1.04,-7.52 m 0,0 c -0.45333,-2.48333 -0.90667,-4.96667 -1.36,-7.45 m 0,0 c -0.55667,-2.45 -1.11333,-4.9 -1.67,-7.35 m 0,0 c -0.66333,-2.41667 -1.32667,-4.83333 -1.99,-7.25 m 0,0 c -0.76667,-2.37 -1.53333,-4.74 -2.3,-7.11 m 0,0 c -0.86333,-2.32 -1.72667,-4.64 -2.59,-6.96 m 0,0 c -0.96,-2.26667 -1.92,-4.53333 -2.88,-6.8 m 0,0 c -1.06,-2.2 -2.12,-4.4 -3.18,-6.6 m 0,0 c -1.14667,-2.13667 -2.29333,-4.27333 -3.44,-6.41 m 0,0 c -1.24,-2.06 -2.48,-4.12 -3.72,-6.18 m 0,0 c -1.32667,-1.98333 -2.65333,-3.96667 -3.98,-5.95 m 0,0 c -1.40667,-1.9 -2.81333,-3.8 -4.22,-5.7 m 0,0 c -1.48667,-1.81 -2.97333,-3.62 -4.46,-5.43 m 0,0 c -1.56333,-1.71667 -3.12667,-3.43333 -4.69,-5.15 m 0,0 c -1.63333,-1.61667 -3.26667,-3.23333 -4.9,-4.85 m 0,0 c -1.7,-1.51667 -3.400004,-3.03333 -5.100004,-4.55 m 0,0 c -1.76333,-1.41 -3.52667,-2.82 -5.29,-4.23 m 0,0 c -1.82,-1.3 -3.64,-2.6 -5.46,-3.9 m 0,0 c -1.87333,-1.18667 -3.74667,-2.37333 -5.62,-3.56 m 0,0 c -1.92,-1.07333 -3.84,-2.14667 -5.76,-3.22 m 0,0 c -1.96333,-0.95 -3.92667,-1.9 -5.89,-2.85 m 0,0 c -2.00333,-0.83 -4.00667,-1.66 -6.01,-2.49 m 0,0 c -2.03667,-0.70333 -4.07333,-1.40667 -6.11,-2.11 m 0,0 c -2.06,-0.58 -4.12,-1.16 -6.18,-1.74 m 0,0 c -2.08667,-0.45333 -4.17333,-0.90667 -6.26,-1.36 m 0,0 c -2.1,-0.32333 -4.2,-0.64667 -6.3,-0.97 m 0,0 c -2.11333,-0.19667 -4.22667,-0.39333 -6.34,-0.59 m 0,0 c -2.11667,-0.0633 -4.23333,-0.12667 -6.35,-0.19"
     fill="none"
     stroke="#000000"
     stroke-width="0.5"
     id="path10"
     style="fill:#000000;fill-opacity:0;stroke-width:15.1181;stroke-dasharray:none" />
  <path
     d="m 17.547286,331.60179 0.12,-0.16 m 0,0 0.13,-0.16 m 0,0 0.12,-0.16 m 0,0 0.12,-0.16 m 0,0 0.12,-0.16 m 0,0 0.12,-0.16 m 0,0 0.12,-0.16 m 0,0 0.11,-0.16 m 0,0 0.12,-0.17 m 0,0 0.11,-0.16 m 0,0 0.11,-0.16 m 0,0 0.12,-0.16 m 0,0 0.11,-0.17 m 0,0 0.11,-0.16 m 0,0 0.11,-0.17 m 0,0 0.11,-0.16 m 0,0 0.1,-0.17 m 0,0 0.11,-0.16 m 0,0 0.1,-0.17 m 0,0 0.11,-0.17 m 0,0 0.1,-0.17 m 0,0 0.1,-0.17 m 0,0 0.1,-0.17 m 0,0 0.1,-0.17 m 0,0 0.1,-0.17 m 0,0 0.1,-0.17 m 0,0 0.1,-0.17 m 0,0 0.09,-0.17 m 0,0 0.1,-0.17 m 0,0 0.09,-0.18 m 0,0 0.1,-0.17 m 0,0 0.09,-0.18 m 0,0 0.09,-0.17 m 0,0 0.09,-0.18 m 0,0 0.09,-0.18 m 0,0 0.09,-0.17 m 0,0 0.08,-0.18 m 0,0 0.09,-0.18 m 0,0 0.08,-0.18 m 0,0 0.09,-0.18 m 0,0 0.08,-0.18 m 0,0 0.08,-0.19 m 0,0 0.08,-0.18 m 0,0 0.08,-0.18 m 0,0 0.08,-0.19 m 0,0 0.08,-0.18 m 0,0 0.08,-0.19 m 0,0 0.08,-0.19 m 0,0 0.07,-0.19 m 0,0 0.08,-0.19 m 0,0 0.07,-0.19 m 0,0 0.07,-0.19 m 0,0 0.07,-0.19 m 0,0 0.07,-0.19 m 0,0 0.07,-0.19 m 0,0 0.07,-0.2 m 0,0 0.07,-0.19 m 0,0 0.07,-0.2 m 0,0 0.06,-0.2 m 0,0 0.07,-0.2 m 0,0 0.06,-0.19 m 0,0 0.07,-0.2 m 0,0 0.06,-0.21 m 0,0 0.06,-0.2 m 0,0 0.06,-0.2 m 0,0 0.06,-0.21 m 0,0 0.06,-0.2 m 0,0 0.06,-0.21 m 0,0 0.05,-0.2 m 0,0 0.06,-0.21 m 0,0 0.05,-0.21 m 0,0 0.06,-0.21 m 0,0 0.05,-0.22 m 0,0 0.05,-0.21 m 0,0 0.05,-0.21 m 0,0 0.06,-0.22 m 0,0 0.04,-0.21 m 0,0 0.05,-0.22 m 0,0 0.05,-0.22 m 0,0 0.05,-0.22 m 0,0 0.04,-0.22 m 0,0 0.05,-0.22 m 0,0 0.04,-0.22 m 0,0 0.04,-0.22 m 0,0 0.04,-0.23 m 0,0 0.04,-0.22 m 0,0 0.04,-0.23 m 0,0 0.04,-0.22 m 0,0 0.04,-0.23 m 0,0 0.03,-0.23 m 0,0 0.04,-0.23 m 0,0 0.03,-0.23 m 0,0 0.04,-0.23 m 0,0 0.03,-0.23 m 0,0 0.03,-0.23 m 0,0 0.03,-0.23 m 0,0 0.03,-0.23 m 0,0 0.03,-0.24 m 0,0 0.02,-0.23 m 0,0 0.03,-0.24 m 0,0 0.02,-0.23 m 0,0 0.03,-0.24 m 0,0 0.02,-0.23 m 0,0 0.02,-0.24 m 0,0 0.02,-0.24 m 0,0 0.02,-0.23 m 0,0 0.02,-0.24 m 0,0 0.02,-0.24 m 0,0 0.01,-0.24 m 0,0 0.02,-0.24 m 0,0 0.01,-0.24 m 0,0 0.02,-0.24 m 0,0 0.01,-0.24 m 0,0 0.01,-0.24 m 0,0 0.01,-0.24 m 0,0 0.01,-0.24 m 0,0 0.01,-0.24 m 0,0 0.01,-0.24 m 0,0 0.01,-0.24 m 0,0 v -0.24 m 0,0 0.01,-0.24 m 0,0 v -0.25 m 0,0 v -0.24 m 0,0 0.01,-0.24 m 0,0 v -0.24 m 0,0 v -0.24 m 0,0 v -0.25 m 0,0 -0.01,-0.24"
     fill="none"
     stroke="#000000"
     stroke-width="0.5"
     id="path11"
     style="fill:#000000;fill-opacity:0;stroke-width:15.1181;stroke-dasharray:none" />
  <path
     d="m 25.307286,305.61179 -0.2,-2.97 m 0,0 -0.57,-2.93 m 0,0 -0.91,-2.85 m 0,0 -1.24,-2.71 m 0,0 -1.56,-2.54 m 0,0 -1.85,-2.34 m 0,0 -2.12,-2.1 m 0,0 -2.36,-1.83 m 0,0 -2.56,-1.54 m 0,0 -2.7200005,-1.21 m 0,0 -2.85,-0.88 m 0,0 -2.94,-0.54 m 0,0 -2.96999999,-0.18"
     fill="none"
     stroke="#000000"
     stroke-width="0.5"
     id="path12"
     style="fill:#000000;fill-opacity:0;stroke-width:15.1181;stroke-dasharray:none" />
  <path
     style="fill:#000000;fill-opacity:0;stroke-width:15.1181;stroke-dasharray:none"
     d="m 111.08632,9.0112018 c 1.62484,7.8533992 1.62484,7.8533992 1.62484,7.8533992"
     id="path13" />
</svg>
